<?xml version="1.0" encoding="iso-8859-1"?>
<!-- Generator: Adobe Illustrator 19.0.0, SVG Export Plug-In . SVG Version: 6.00 Build 0)  -->
<svg version="1.1" id="Layer_1" xmlns="http://www.w3.org/2000/svg" xmlns:xlink="http://www.w3.org/1999/xlink" x="0px" y="0px"
	 viewBox="0 0 512 512" style="enable-background:new 0 0 512 512;" xml:space="preserve">
<g>
	<rect x="177.515" y="247.999" style="fill:#CCCCCC;" width="185.797" height="16"/>
	<polygon style="fill:#CCCCCC;" points="363.312,445.455 274.032,445.455 274.032,66.544 363.312,66.544 363.312,82.544 
		290.032,82.544 290.032,429.455 363.312,429.455 	"/>
</g>
<g>
	<path style="fill:#E21B1B;" d="M427.992,378.912c32.333,0,58.544,26.211,58.544,58.544S460.326,496,427.992,496
		s-58.544-26.211-58.544-58.544C369.487,405.139,395.676,378.951,427.992,378.912 M427.992,362.912
		c-41.169,0-74.544,33.374-74.544,74.544S386.822,512,427.992,512s74.544-33.374,74.544-74.544S469.161,362.912,427.992,362.912
		L427.992,362.912z"/>
	<path style="fill:#E21B1B;" d="M427.992,197.456c32.333,0.014,58.533,26.235,58.52,58.568
		c-0.014,32.333-26.235,58.533-58.568,58.52c-32.324-0.014-58.52-26.22-58.52-58.544
		C369.464,223.674,395.666,197.482,427.992,197.456 M427.992,181.456c-41.169-0.014-74.555,33.351-74.568,74.52
		c-0.014,41.169,33.351,74.555,74.52,74.568c41.169,0.013,74.555-33.351,74.568-74.52c0-0.008,0-0.016,0-0.024
		C502.512,214.84,469.152,181.469,427.992,181.456z"/>
	<path style="fill:#E21B1B;" d="M427.992,16c32.333,0,58.544,26.211,58.544,58.544s-26.211,58.544-58.544,58.544
		s-58.544-26.211-58.544-58.544C369.487,42.227,395.676,16.039,427.992,16 M427.992,0c-41.169,0-74.544,33.374-74.544,74.544
		s33.374,74.544,74.544,74.544s74.544-33.374,74.544-74.544S469.161,0,427.992,0L427.992,0z"/>
	<circle style="fill:#E21B1B;" cx="109.674" cy="263.13" r="100.21"/>
</g>
<polygon style="fill:#FFFFFF;" points="144.12,217.615 93.136,280.496 71.713,259.343 57.584,274.911 94.793,311.632 
	159.808,231.448 "/>
<g>
</g>
<g>
</g>
<g>
</g>
<g>
</g>
<g>
</g>
<g>
</g>
<g>
</g>
<g>
</g>
<g>
</g>
<g>
</g>
<g>
</g>
<g>
</g>
<g>
</g>
<g>
</g>
<g>
</g>
</svg>
